<mxfile host="app.diagrams.net" modified="2023-12-14T10:08:34.961Z" agent="Mozilla/5.0 (Macintosh; Intel Mac OS X 10_15_7) AppleWebKit/537.36 (KHTML, like Gecko) Chrome/116.0.0.0 Safari/537.36" etag="zK3yku1-Vh7UktiE1FQ0" version="21.6.5" type="device">
  <diagram name="Page-1" id="MzeWeCUXSTkOywHFQ7kZ">
    <mxGraphModel dx="1735" dy="2123" grid="1" gridSize="10" guides="1" tooltips="1" connect="1" arrows="1" fold="0" page="1" pageScale="1" pageWidth="1169" pageHeight="827" math="0" shadow="0">
      <root>
        <mxCell id="0" />
        <mxCell id="1" parent="0" />
        <mxCell id="b3Oe1Vcn1kFlsBxREFu5-14" value="VPC" style="points=[[0,0],[0.25,0],[0.5,0],[0.75,0],[1,0],[1,0.25],[1,0.5],[1,0.75],[1,1],[0.75,1],[0.5,1],[0.25,1],[0,1],[0,0.75],[0,0.5],[0,0.25]];outlineConnect=0;gradientColor=none;html=1;whiteSpace=wrap;fontSize=12;fontStyle=0;container=1;pointerEvents=0;collapsible=0;recursiveResize=0;shape=mxgraph.aws4.group;grIcon=mxgraph.aws4.group_vpc;strokeColor=#248814;fillColor=none;verticalAlign=top;align=left;spacingLeft=30;fontColor=#AAB7B8;dashed=0;" parent="1" vertex="1">
          <mxGeometry x="610" y="58" width="270" height="242" as="geometry" />
        </mxCell>
        <mxCell id="UVy9gnQ6HsDRLbEmg9AX-11" value="" style="edgeStyle=none;curved=1;rounded=0;orthogonalLoop=1;jettySize=auto;html=1;fontSize=12;startSize=8;endSize=8;" edge="1" parent="1" source="b3Oe1Vcn1kFlsBxREFu5-7" target="b3Oe1Vcn1kFlsBxREFu5-4">
          <mxGeometry relative="1" as="geometry" />
        </mxCell>
        <mxCell id="b3Oe1Vcn1kFlsBxREFu5-7" value="" style="sketch=0;points=[[0,0,0],[0.25,0,0],[0.5,0,0],[0.75,0,0],[1,0,0],[0,1,0],[0.25,1,0],[0.5,1,0],[0.75,1,0],[1,1,0],[0,0.25,0],[0,0.5,0],[0,0.75,0],[1,0.25,0],[1,0.5,0],[1,0.75,0]];outlineConnect=0;fontColor=#232F3E;gradientColor=#4D72F3;gradientDirection=north;fillColor=#3334B9;strokeColor=#ffffff;dashed=0;verticalLabelPosition=bottom;verticalAlign=top;align=center;html=1;fontSize=12;fontStyle=0;aspect=fixed;shape=mxgraph.aws4.resourceIcon;resIcon=mxgraph.aws4.codebuild;" parent="1" vertex="1">
          <mxGeometry x="430" y="-110" width="78" height="78" as="geometry" />
        </mxCell>
        <mxCell id="UVy9gnQ6HsDRLbEmg9AX-10" value="" style="edgeStyle=none;curved=1;rounded=0;orthogonalLoop=1;jettySize=auto;html=1;fontSize=12;startSize=8;endSize=8;" edge="1" parent="1" source="b3Oe1Vcn1kFlsBxREFu5-8" target="b3Oe1Vcn1kFlsBxREFu5-7">
          <mxGeometry relative="1" as="geometry" />
        </mxCell>
        <mxCell id="b3Oe1Vcn1kFlsBxREFu5-8" value="" style="sketch=0;points=[[0,0,0],[0.25,0,0],[0.5,0,0],[0.75,0,0],[1,0,0],[0,1,0],[0.25,1,0],[0.5,1,0],[0.75,1,0],[1,1,0],[0,0.25,0],[0,0.5,0],[0,0.75,0],[1,0.25,0],[1,0.5,0],[1,0.75,0]];outlineConnect=0;fontColor=#232F3E;gradientColor=#4D72F3;gradientDirection=north;fillColor=#3334B9;strokeColor=#ffffff;dashed=0;verticalLabelPosition=bottom;verticalAlign=top;align=center;html=1;fontSize=12;fontStyle=0;aspect=fixed;shape=mxgraph.aws4.resourceIcon;resIcon=mxgraph.aws4.codecommit;" parent="1" vertex="1">
          <mxGeometry x="310" y="-110" width="78" height="78" as="geometry" />
        </mxCell>
        <mxCell id="UVy9gnQ6HsDRLbEmg9AX-5" style="edgeStyle=none;curved=1;rounded=0;orthogonalLoop=1;jettySize=auto;html=1;entryX=0;entryY=0.5;entryDx=0;entryDy=0;fontSize=12;startSize=8;endSize=8;" edge="1" parent="1" target="b3Oe1Vcn1kFlsBxREFu5-69">
          <mxGeometry relative="1" as="geometry">
            <mxPoint x="106.17955112219443" y="288" as="sourcePoint" />
            <Array as="points">
              <mxPoint x="80" y="650" />
            </Array>
          </mxGeometry>
        </mxCell>
        <mxCell id="b3Oe1Vcn1kFlsBxREFu5-12" value="AWS Cloud" style="points=[[0,0],[0.25,0],[0.5,0],[0.75,0],[1,0],[1,0.25],[1,0.5],[1,0.75],[1,1],[0.75,1],[0.5,1],[0.25,1],[0,1],[0,0.75],[0,0.5],[0,0.25]];outlineConnect=0;gradientColor=none;html=1;whiteSpace=wrap;fontSize=12;fontStyle=0;container=1;pointerEvents=0;collapsible=0;recursiveResize=0;shape=mxgraph.aws4.group;grIcon=mxgraph.aws4.group_aws_cloud_alt;strokeColor=#232F3E;fillColor=none;verticalAlign=top;align=left;spacingLeft=30;fontColor=#232F3E;dashed=0;" parent="1" vertex="1">
          <mxGeometry x="360" y="10" width="810" height="500" as="geometry" />
        </mxCell>
        <mxCell id="b3Oe1Vcn1kFlsBxREFu5-13" value="Private subnet" style="points=[[0,0],[0.25,0],[0.5,0],[0.75,0],[1,0],[1,0.25],[1,0.5],[1,0.75],[1,1],[0.75,1],[0.5,1],[0.25,1],[0,1],[0,0.75],[0,0.5],[0,0.25]];outlineConnect=0;gradientColor=none;html=1;whiteSpace=wrap;fontSize=12;fontStyle=0;container=1;pointerEvents=0;collapsible=0;recursiveResize=0;shape=mxgraph.aws4.group;grIcon=mxgraph.aws4.group_security_group;grStroke=0;strokeColor=#147EBA;fillColor=#E6F2F8;verticalAlign=top;align=left;spacingLeft=30;fontColor=#147EBA;dashed=0;" parent="b3Oe1Vcn1kFlsBxREFu5-12" vertex="1">
          <mxGeometry x="320" y="72" width="160" height="174" as="geometry" />
        </mxCell>
        <mxCell id="b3Oe1Vcn1kFlsBxREFu5-2" value="" style="sketch=0;points=[[0,0,0],[0.25,0,0],[0.5,0,0],[0.75,0,0],[1,0,0],[0,1,0],[0.25,1,0],[0.5,1,0],[0.75,1,0],[1,1,0],[0,0.25,0],[0,0.5,0],[0,0.75,0],[1,0.25,0],[1,0.5,0],[1,0.75,0]];outlineConnect=0;fontColor=#232F3E;gradientColor=#F78E04;gradientDirection=north;fillColor=#D05C17;strokeColor=#ffffff;dashed=0;verticalLabelPosition=bottom;verticalAlign=top;align=center;html=1;fontSize=12;fontStyle=0;aspect=fixed;shape=mxgraph.aws4.resourceIcon;resIcon=mxgraph.aws4.fargate;" parent="b3Oe1Vcn1kFlsBxREFu5-13" vertex="1">
          <mxGeometry x="20" y="58" width="68" height="68" as="geometry" />
        </mxCell>
        <mxCell id="b3Oe1Vcn1kFlsBxREFu5-41" value="" style="sketch=0;points=[[0,0,0],[0.25,0,0],[0.5,0,0],[0.75,0,0],[1,0,0],[0,1,0],[0.25,1,0],[0.5,1,0],[0.75,1,0],[1,1,0],[0,0.25,0],[0,0.5,0],[0,0.75,0],[1,0.25,0],[1,0.5,0],[1,0.75,0]];outlineConnect=0;fontColor=#232F3E;gradientColor=#4D72F3;gradientDirection=north;fillColor=#3334B9;strokeColor=#ffffff;dashed=0;verticalLabelPosition=bottom;verticalAlign=top;align=center;html=1;fontSize=12;fontStyle=0;aspect=fixed;shape=mxgraph.aws4.resourceIcon;resIcon=mxgraph.aws4.dynamodb;" parent="b3Oe1Vcn1kFlsBxREFu5-12" vertex="1">
          <mxGeometry x="620" y="120" width="78" height="78" as="geometry" />
        </mxCell>
        <mxCell id="b3Oe1Vcn1kFlsBxREFu5-43" value="" style="sketch=0;outlineConnect=0;fontColor=#232F3E;gradientColor=none;fillColor=#D45B07;strokeColor=none;dashed=0;verticalLabelPosition=bottom;verticalAlign=top;align=center;html=1;fontSize=12;fontStyle=0;aspect=fixed;pointerEvents=1;shape=mxgraph.aws4.lambda_function;" parent="b3Oe1Vcn1kFlsBxREFu5-12" vertex="1">
          <mxGeometry x="635" y="280" width="48" height="48" as="geometry" />
        </mxCell>
        <mxCell id="b3Oe1Vcn1kFlsBxREFu5-44" value="" style="sketch=0;outlineConnect=0;fontColor=#232F3E;gradientColor=none;fillColor=#2E27AD;strokeColor=none;dashed=0;verticalLabelPosition=bottom;verticalAlign=top;align=center;html=1;fontSize=12;fontStyle=0;aspect=fixed;pointerEvents=1;shape=mxgraph.aws4.dynamodb_stream;" parent="b3Oe1Vcn1kFlsBxREFu5-12" vertex="1">
          <mxGeometry x="635" y="210" width="40" height="40" as="geometry" />
        </mxCell>
        <mxCell id="b3Oe1Vcn1kFlsBxREFu5-45" value="" style="edgeStyle=orthogonalEdgeStyle;html=1;endArrow=block;elbow=vertical;startArrow=none;endFill=1;strokeColor=#545B64;rounded=0;fontSize=12;startSize=8;endSize=8;curved=1;exitX=0.5;exitY=1;exitDx=0;exitDy=0;exitPerimeter=0;entryX=0.5;entryY=0;entryDx=0;entryDy=0;entryPerimeter=0;" parent="b3Oe1Vcn1kFlsBxREFu5-12" source="b3Oe1Vcn1kFlsBxREFu5-41" edge="1">
          <mxGeometry width="100" relative="1" as="geometry">
            <mxPoint x="458" y="169" as="sourcePoint" />
            <mxPoint x="659.0000000000005" y="380" as="targetPoint" />
          </mxGeometry>
        </mxCell>
        <mxCell id="b3Oe1Vcn1kFlsBxREFu5-46" value="" style="sketch=0;outlineConnect=0;fontColor=#232F3E;gradientColor=none;fillColor=#D45B07;strokeColor=none;dashed=0;verticalLabelPosition=bottom;verticalAlign=top;align=center;html=1;fontSize=12;fontStyle=0;aspect=fixed;pointerEvents=1;shape=mxgraph.aws4.lambda_function;" parent="b3Oe1Vcn1kFlsBxREFu5-12" vertex="1">
          <mxGeometry x="385" y="395" width="48" height="48" as="geometry" />
        </mxCell>
        <mxCell id="b3Oe1Vcn1kFlsBxREFu5-47" value="" style="edgeStyle=orthogonalEdgeStyle;html=1;endArrow=block;elbow=vertical;startArrow=none;endFill=1;strokeColor=#545B64;rounded=0;fontSize=12;startSize=8;endSize=8;curved=1;entryX=0;entryY=0.5;entryDx=0;entryDy=0;entryPerimeter=0;" parent="b3Oe1Vcn1kFlsBxREFu5-12" source="b3Oe1Vcn1kFlsBxREFu5-46" edge="1">
          <mxGeometry width="100" relative="1" as="geometry">
            <mxPoint x="458" y="169" as="sourcePoint" />
            <mxPoint x="620" y="419.00000000000045" as="targetPoint" />
          </mxGeometry>
        </mxCell>
        <mxCell id="b3Oe1Vcn1kFlsBxREFu5-18" value="" style="sketch=0;points=[[0,0,0],[0.25,0,0],[0.5,0,0],[0.75,0,0],[1,0,0],[0,1,0],[0.25,1,0],[0.5,1,0],[0.75,1,0],[1,1,0],[0,0.25,0],[0,0.5,0],[0,0.75,0],[1,0.25,0],[1,0.5,0],[1,0.75,0]];outlineConnect=0;fontColor=#232F3E;gradientColor=#F54749;gradientDirection=north;fillColor=#C7131F;strokeColor=#ffffff;dashed=0;verticalLabelPosition=bottom;verticalAlign=top;align=center;html=1;fontSize=12;fontStyle=0;aspect=fixed;shape=mxgraph.aws4.resourceIcon;resIcon=mxgraph.aws4.cognito;" parent="b3Oe1Vcn1kFlsBxREFu5-12" vertex="1">
          <mxGeometry x="630" width="60" height="60" as="geometry" />
        </mxCell>
        <mxCell id="b3Oe1Vcn1kFlsBxREFu5-53" value="" style="sketch=0;points=[[0,0,0],[0.25,0,0],[0.5,0,0],[0.75,0,0],[1,0,0],[0,1,0],[0.25,1,0],[0.5,1,0],[0.75,1,0],[1,1,0],[0,0.25,0],[0,0.5,0],[0,0.75,0],[1,0.25,0],[1,0.5,0],[1,0.75,0]];points=[[0,0,0],[0.25,0,0],[0.5,0,0],[0.75,0,0],[1,0,0],[0,1,0],[0.25,1,0],[0.5,1,0],[0.75,1,0],[1,1,0],[0,0.25,0],[0,0.5,0],[0,0.75,0],[1,0.25,0],[1,0.5,0],[1,0.75,0]];outlineConnect=0;fontColor=#232F3E;gradientColor=#F34482;gradientDirection=north;fillColor=#BC1356;strokeColor=#ffffff;dashed=0;verticalLabelPosition=bottom;verticalAlign=top;align=center;html=1;fontSize=12;fontStyle=0;aspect=fixed;shape=mxgraph.aws4.resourceIcon;resIcon=mxgraph.aws4.cloudwatch_2;" parent="b3Oe1Vcn1kFlsBxREFu5-12" vertex="1">
          <mxGeometry x="730" width="60" height="60" as="geometry" />
        </mxCell>
        <mxCell id="b3Oe1Vcn1kFlsBxREFu5-50" value="" style="sketch=0;points=[[0,0,0],[0.25,0,0],[0.5,0,0],[0.75,0,0],[1,0,0],[0,1,0],[0.25,1,0],[0.5,1,0],[0.75,1,0],[1,1,0],[0,0.25,0],[0,0.5,0],[0,0.75,0],[1,0.25,0],[1,0.5,0],[1,0.75,0]];outlineConnect=0;fontColor=#232F3E;gradientColor=#945DF2;gradientDirection=north;fillColor=#5A30B5;strokeColor=#ffffff;dashed=0;verticalLabelPosition=bottom;verticalAlign=top;align=center;html=1;fontSize=12;fontStyle=0;aspect=fixed;shape=mxgraph.aws4.resourceIcon;resIcon=mxgraph.aws4.api_gateway;" parent="b3Oe1Vcn1kFlsBxREFu5-12" vertex="1">
          <mxGeometry x="20" y="370" width="78" height="78" as="geometry" />
        </mxCell>
        <mxCell id="b3Oe1Vcn1kFlsBxREFu5-87" value="" style="edgeStyle=orthogonalEdgeStyle;html=1;endArrow=block;elbow=vertical;startArrow=none;endFill=1;strokeColor=#545B64;rounded=0;fontSize=12;startSize=8;endSize=8;exitX=1;exitY=0.5;exitDx=0;exitDy=0;exitPerimeter=0;" parent="b3Oe1Vcn1kFlsBxREFu5-12" source="b3Oe1Vcn1kFlsBxREFu5-50" target="b3Oe1Vcn1kFlsBxREFu5-46" edge="1">
          <mxGeometry width="100" relative="1" as="geometry">
            <mxPoint x="-176" y="429" as="sourcePoint" />
            <mxPoint x="110" y="559" as="targetPoint" />
            <Array as="points">
              <mxPoint x="98" y="430" />
            </Array>
          </mxGeometry>
        </mxCell>
        <mxCell id="b3Oe1Vcn1kFlsBxREFu5-88" value="" style="sketch=0;points=[[0,0,0],[0.25,0,0],[0.5,0,0],[0.75,0,0],[1,0,0],[0,1,0],[0.25,1,0],[0.5,1,0],[0.75,1,0],[1,1,0],[0,0.25,0],[0,0.5,0],[0,0.75,0],[1,0.25,0],[1,0.5,0],[1,0.75,0]];outlineConnect=0;fontColor=#232F3E;gradientColor=#4D72F3;gradientDirection=north;fillColor=#3334B9;strokeColor=#ffffff;dashed=0;verticalLabelPosition=bottom;verticalAlign=top;align=center;html=1;fontSize=12;fontStyle=0;aspect=fixed;shape=mxgraph.aws4.resourceIcon;resIcon=mxgraph.aws4.dynamodb;" parent="b3Oe1Vcn1kFlsBxREFu5-12" vertex="1">
          <mxGeometry x="620" y="380" width="78" height="78" as="geometry" />
        </mxCell>
        <mxCell id="b3Oe1Vcn1kFlsBxREFu5-89" value="" style="sketch=0;points=[[0,0,0],[0.25,0,0],[0.5,0,0],[0.75,0,0],[1,0,0],[0,1,0],[0.25,1,0],[0.5,1,0],[0.75,1,0],[1,1,0],[0,0.25,0],[0,0.5,0],[0,0.75,0],[1,0.25,0],[1,0.5,0],[1,0.75,0]];outlineConnect=0;fontColor=#232F3E;gradientColor=#945DF2;gradientDirection=north;fillColor=#5A30B5;strokeColor=#ffffff;dashed=0;verticalLabelPosition=bottom;verticalAlign=top;align=center;html=1;fontSize=12;fontStyle=0;aspect=fixed;shape=mxgraph.aws4.resourceIcon;resIcon=mxgraph.aws4.api_gateway;" parent="b3Oe1Vcn1kFlsBxREFu5-12" vertex="1">
          <mxGeometry x="10" y="120" width="78" height="78" as="geometry" />
        </mxCell>
        <mxCell id="UVy9gnQ6HsDRLbEmg9AX-4" style="edgeStyle=none;curved=1;rounded=0;orthogonalLoop=1;jettySize=auto;html=1;entryX=0;entryY=0.5;entryDx=0;entryDy=0;entryPerimeter=0;fontSize=12;startSize=8;endSize=8;" edge="1" parent="b3Oe1Vcn1kFlsBxREFu5-12" target="b3Oe1Vcn1kFlsBxREFu5-41">
          <mxGeometry relative="1" as="geometry">
            <mxPoint x="447.99999999999955" y="159.00000000000045" as="sourcePoint" />
          </mxGeometry>
        </mxCell>
        <mxCell id="UVy9gnQ6HsDRLbEmg9AX-15" value="" style="sketch=0;points=[[0,0,0],[0.25,0,0],[0.5,0,0],[0.75,0,0],[1,0,0],[0,1,0],[0.25,1,0],[0.5,1,0],[0.75,1,0],[1,1,0],[0,0.25,0],[0,0.5,0],[0,0.75,0],[1,0.25,0],[1,0.5,0],[1,0.75,0]];points=[[0,0,0],[0.25,0,0],[0.5,0,0],[0.75,0,0],[1,0,0],[0,1,0],[0.25,1,0],[0.5,1,0],[0.75,1,0],[1,1,0],[0,0.25,0],[0,0.5,0],[0,0.75,0],[1,0.25,0],[1,0.5,0],[1,0.75,0]];outlineConnect=0;fontColor=#232F3E;gradientColor=#F34482;gradientDirection=north;fillColor=#BC1356;strokeColor=#ffffff;dashed=0;verticalLabelPosition=bottom;verticalAlign=top;align=center;html=1;fontSize=12;fontStyle=0;aspect=fixed;shape=mxgraph.aws4.resourceIcon;resIcon=mxgraph.aws4.cloudformation;" vertex="1" parent="b3Oe1Vcn1kFlsBxREFu5-12">
          <mxGeometry x="550" width="60" height="60" as="geometry" />
        </mxCell>
        <mxCell id="UVy9gnQ6HsDRLbEmg9AX-12" style="edgeStyle=none;curved=1;rounded=0;orthogonalLoop=1;jettySize=auto;html=1;entryX=0.5;entryY=0;entryDx=0;entryDy=0;entryPerimeter=0;fontSize=12;startSize=8;endSize=8;" edge="1" parent="1" source="b3Oe1Vcn1kFlsBxREFu5-4" target="b3Oe1Vcn1kFlsBxREFu5-2">
          <mxGeometry relative="1" as="geometry" />
        </mxCell>
        <mxCell id="b3Oe1Vcn1kFlsBxREFu5-4" value="" style="sketch=0;points=[[0,0,0],[0.25,0,0],[0.5,0,0],[0.75,0,0],[1,0,0],[0,1,0],[0.25,1,0],[0.5,1,0],[0.75,1,0],[1,1,0],[0,0.25,0],[0,0.5,0],[0,0.75,0],[1,0.25,0],[1,0.5,0],[1,0.75,0]];outlineConnect=0;fontColor=#232F3E;gradientColor=#F78E04;gradientDirection=north;fillColor=#D05C17;strokeColor=#ffffff;dashed=0;verticalLabelPosition=bottom;verticalAlign=top;align=center;html=1;fontSize=12;fontStyle=0;aspect=fixed;shape=mxgraph.aws4.resourceIcon;resIcon=mxgraph.aws4.ecr;" parent="1" vertex="1">
          <mxGeometry x="550" y="-110" width="78" height="78" as="geometry" />
        </mxCell>
        <mxCell id="b3Oe1Vcn1kFlsBxREFu5-25" value="" style="edgeStyle=orthogonalEdgeStyle;html=1;endArrow=block;elbow=vertical;startArrow=none;endFill=1;strokeColor=#545B64;rounded=0;fontSize=12;startSize=8;endSize=8;entryX=0;entryY=0.5;entryDx=0;entryDy=0;entryPerimeter=0;" parent="1" target="b3Oe1Vcn1kFlsBxREFu5-50" edge="1">
          <mxGeometry width="100" relative="1" as="geometry">
            <mxPoint x="108.88888888888869" y="288" as="sourcePoint" />
            <mxPoint x="380" y="589" as="targetPoint" />
            <Array as="points">
              <mxPoint x="109" y="350" />
              <mxPoint x="240" y="350" />
              <mxPoint x="240" y="440" />
              <mxPoint x="380" y="440" />
            </Array>
          </mxGeometry>
        </mxCell>
        <mxCell id="b3Oe1Vcn1kFlsBxREFu5-28" value="" style="edgeStyle=orthogonalEdgeStyle;html=1;endArrow=block;elbow=vertical;startArrow=none;endFill=1;strokeColor=#545B64;rounded=0;fontSize=12;startSize=8;endSize=8;entryX=0;entryY=0.5;entryDx=0;entryDy=0;" parent="1" target="b3Oe1Vcn1kFlsBxREFu5-13" edge="1">
          <mxGeometry width="100" relative="1" as="geometry">
            <mxPoint x="110" y="288" as="sourcePoint" />
            <mxPoint x="528" y="169" as="targetPoint" />
            <Array as="points">
              <mxPoint x="110" y="350" />
              <mxPoint x="240" y="350" />
              <mxPoint x="240" y="169" />
            </Array>
          </mxGeometry>
        </mxCell>
        <mxCell id="b3Oe1Vcn1kFlsBxREFu5-48" value="Command" style="sketch=0;outlineConnect=0;fontColor=#232F3E;gradientColor=none;fillColor=#D45B07;strokeColor=none;dashed=0;verticalLabelPosition=bottom;verticalAlign=top;align=center;html=1;fontSize=12;fontStyle=0;aspect=fixed;pointerEvents=1;shape=mxgraph.aws4.ecs_service;" parent="1" vertex="1">
          <mxGeometry x="290" y="140" width="39" height="48" as="geometry" />
        </mxCell>
        <mxCell id="b3Oe1Vcn1kFlsBxREFu5-49" value="Query" style="sketch=0;outlineConnect=0;fontColor=#232F3E;gradientColor=none;fillColor=#D45B07;strokeColor=none;dashed=0;verticalLabelPosition=bottom;verticalAlign=top;align=center;html=1;fontSize=12;fontStyle=0;aspect=fixed;pointerEvents=1;shape=mxgraph.aws4.ecs_service;" parent="1" vertex="1">
          <mxGeometry x="290" y="405" width="39" height="48" as="geometry" />
        </mxCell>
        <mxCell id="b3Oe1Vcn1kFlsBxREFu5-69" value="AWS Cloud" style="points=[[0,0],[0.25,0],[0.5,0],[0.75,0],[1,0],[1,0.25],[1,0.5],[1,0.75],[1,1],[0.75,1],[0.5,1],[0.25,1],[0,1],[0,0.75],[0,0.5],[0,0.25]];outlineConnect=0;gradientColor=none;html=1;whiteSpace=wrap;fontSize=12;fontStyle=0;container=1;pointerEvents=0;collapsible=0;recursiveResize=0;shape=mxgraph.aws4.group;grIcon=mxgraph.aws4.group_aws_cloud_alt;strokeColor=#232F3E;fillColor=none;verticalAlign=top;align=left;spacingLeft=30;fontColor=#232F3E;dashed=0;movable=1;resizable=1;rotatable=1;deletable=1;editable=1;locked=0;connectable=1;" parent="1" vertex="1">
          <mxGeometry x="360" y="560" width="460" height="140" as="geometry" />
        </mxCell>
        <mxCell id="b3Oe1Vcn1kFlsBxREFu5-52" value="" style="sketch=0;points=[[0,0,0],[0.25,0,0],[0.5,0,0],[0.75,0,0],[1,0,0],[0,1,0],[0.25,1,0],[0.5,1,0],[0.75,1,0],[1,1,0],[0,0.25,0],[0,0.5,0],[0,0.75,0],[1,0.25,0],[1,0.5,0],[1,0.75,0]];outlineConnect=0;fontColor=#232F3E;gradientColor=#60A337;gradientDirection=north;fillColor=#277116;strokeColor=#ffffff;dashed=0;verticalLabelPosition=bottom;verticalAlign=top;align=center;html=1;fontSize=12;fontStyle=0;aspect=fixed;shape=mxgraph.aws4.resourceIcon;resIcon=mxgraph.aws4.s3;" parent="b3Oe1Vcn1kFlsBxREFu5-69" vertex="1">
          <mxGeometry x="280" y="31" width="78" height="78" as="geometry" />
        </mxCell>
        <mxCell id="b3Oe1Vcn1kFlsBxREFu5-51" value="" style="sketch=0;points=[[0,0,0],[0.25,0,0],[0.5,0,0],[0.75,0,0],[1,0,0],[0,1,0],[0.25,1,0],[0.5,1,0],[0.75,1,0],[1,1,0],[0,0.25,0],[0,0.5,0],[0,0.75,0],[1,0.25,0],[1,0.5,0],[1,0.75,0]];outlineConnect=0;fontColor=#232F3E;gradientColor=#945DF2;gradientDirection=north;fillColor=#5A30B5;strokeColor=#ffffff;dashed=0;verticalLabelPosition=bottom;verticalAlign=top;align=center;html=1;fontSize=12;fontStyle=0;aspect=fixed;shape=mxgraph.aws4.resourceIcon;resIcon=mxgraph.aws4.cloudfront;" parent="b3Oe1Vcn1kFlsBxREFu5-69" vertex="1">
          <mxGeometry x="112" y="31" width="78" height="78" as="geometry" />
        </mxCell>
        <mxCell id="b3Oe1Vcn1kFlsBxREFu5-84" value="" style="edgeStyle=orthogonalEdgeStyle;html=1;endArrow=block;elbow=vertical;startArrow=none;endFill=1;strokeColor=#545B64;rounded=0;fontSize=12;startSize=8;endSize=8;curved=1;entryX=0;entryY=0.5;entryDx=0;entryDy=0;entryPerimeter=0;exitX=1;exitY=0.5;exitDx=0;exitDy=0;exitPerimeter=0;" parent="b3Oe1Vcn1kFlsBxREFu5-69" source="b3Oe1Vcn1kFlsBxREFu5-51" target="b3Oe1Vcn1kFlsBxREFu5-52" edge="1">
          <mxGeometry width="100" relative="1" as="geometry">
            <mxPoint x="443" y="-141" as="sourcePoint" />
            <mxPoint x="630" y="-141" as="targetPoint" />
          </mxGeometry>
        </mxCell>
        <mxCell id="UVy9gnQ6HsDRLbEmg9AX-8" value="" style="edgeStyle=orthogonalEdgeStyle;html=1;endArrow=block;elbow=vertical;startArrow=none;endFill=1;strokeColor=#545B64;rounded=0;fontSize=12;startSize=8;endSize=8;entryX=0;entryY=0.5;entryDx=0;entryDy=0;entryPerimeter=0;" edge="1" parent="1" target="b3Oe1Vcn1kFlsBxREFu5-8">
          <mxGeometry width="100" relative="1" as="geometry">
            <mxPoint x="179.90380183177354" y="-71.00000000000023" as="sourcePoint" />
            <mxPoint x="680" y="269" as="targetPoint" />
            <Array as="points">
              <mxPoint x="290" y="-71" />
              <mxPoint x="290" y="-71" />
            </Array>
          </mxGeometry>
        </mxCell>
        <mxCell id="UVy9gnQ6HsDRLbEmg9AX-13" value="" style="sketch=0;outlineConnect=0;fontColor=#232F3E;gradientColor=none;fillColor=#232F3D;strokeColor=none;dashed=0;verticalLabelPosition=bottom;verticalAlign=top;align=center;html=1;fontSize=12;fontStyle=0;aspect=fixed;pointerEvents=1;shape=mxgraph.aws4.user;" vertex="1" parent="1">
          <mxGeometry x="90" y="-110" width="78" height="78" as="geometry" />
        </mxCell>
        <mxCell id="UVy9gnQ6HsDRLbEmg9AX-14" value="" style="sketch=0;outlineConnect=0;fontColor=#232F3E;gradientColor=none;fillColor=#232F3D;strokeColor=none;dashed=0;verticalLabelPosition=bottom;verticalAlign=top;align=center;html=1;fontSize=12;fontStyle=0;aspect=fixed;pointerEvents=1;shape=mxgraph.aws4.mobile_client;" vertex="1" parent="1">
          <mxGeometry x="90" y="200" width="41" height="78" as="geometry" />
        </mxCell>
      </root>
    </mxGraphModel>
  </diagram>
</mxfile>
